<svg width="22" height="7" viewBox="0 0 22 7" fill="none" xmlns="http://www.w3.org/2000/svg">
<path d="M3.352 1.96646V6.02246H1.448V1.96646H0.056V0.358461H4.744V1.96646H3.352ZM4.19231 6.02246L6.42431 0.358461H8.44831L10.6563 6.02246H8.58431L8.28831 5.19046H6.48831L6.20831 6.02246H4.19231ZM7.86431 3.73446L7.40831 2.33446L6.94431 3.73446H7.86431ZM11.0592 6.02246V0.358461H12.9793V4.39046H14.8593V6.02246H11.0592ZM18.8339 6.02246L17.3219 3.76646H17.3059V6.02246H15.4499V0.358461H17.2979V2.44646H17.3139L18.8259 0.358461H21.0659L18.9379 2.95046L21.1699 6.02246H18.8339Z" fill="#08262B"/>
</svg>
